<svg width="17" height="18" viewBox="0 0 17 18" fill="none" xmlns="http://www.w3.org/2000/svg">
<path d="M1.88154 7.42651C1.91472 7.06135 2.1024 6.72063 2.40721 6.4722C2.71203 6.22377 3.1116 6.08586 3.52636 6.08594H13.4728C13.8876 6.08586 14.2871 6.22377 14.5919 6.4722C14.8968 6.72063 15.0844 7.06135 15.1176 7.42651L15.78 14.7122C15.7982 14.9127 15.7693 15.1144 15.6949 15.3045C15.6206 15.4946 15.5024 15.6691 15.348 15.8169C15.1936 15.9647 15.0062 16.0827 14.7976 16.1635C14.589 16.2442 14.3637 16.2859 14.136 16.2859H2.86315C2.63542 16.2859 2.41016 16.2442 2.20157 16.1635C1.99298 16.0827 1.80557 15.9647 1.65114 15.8169C1.49671 15.6691 1.37861 15.4946 1.30426 15.3045C1.22991 15.1144 1.20094 14.9127 1.21916 14.7122L1.88154 7.42651V7.42651Z" stroke="white" stroke-width="2" stroke-linecap="round" stroke-linejoin="round"/>
<path d="M11.7983 8.2715V4.62864C11.7983 3.85573 11.4507 3.11446 10.8319 2.56793C10.2131 2.0214 9.37385 1.71436 8.49875 1.71436C7.62366 1.71436 6.78441 2.0214 6.16563 2.56793C5.54685 3.11446 5.19922 3.85573 5.19922 4.62864V8.2715" stroke="white" stroke-width="2" stroke-linecap="round" stroke-linejoin="round"/>
</svg>
