<svg width="17" height="17" viewBox="0 0 17 17" fill="none" xmlns="http://www.w3.org/2000/svg">
<path fill-rule="evenodd" clip-rule="evenodd" d="M1.21387 1.21436H2.12458V14.8751H15.7853V15.7858H1.21387V1.21436ZM14.7079 4.04941C14.7542 4.0873 14.7926 4.13395 14.8209 4.18669C14.8492 4.23943 14.8668 4.29722 14.8727 4.35677C14.8786 4.41631 14.8727 4.47644 14.8554 4.53371C14.8381 4.59099 14.8096 4.64428 14.7717 4.69055L10.6735 9.69948C10.6332 9.74865 10.583 9.78883 10.5263 9.81746C10.4696 9.84608 10.4074 9.86251 10.344 9.86569C10.2805 9.86886 10.217 9.85871 10.1577 9.83589C10.0984 9.81307 10.0445 9.77808 9.99953 9.73318L7.64351 7.37716L4.31394 11.9553C4.2411 12.0479 4.1352 12.1087 4.01849 12.1249C3.90178 12.1411 3.78334 12.1113 3.68807 12.042C3.5928 11.9727 3.52811 11.8691 3.5076 11.7531C3.48709 11.6371 3.51235 11.5176 3.57808 11.4198L7.22094 6.41089C7.2596 6.35763 7.30936 6.31338 7.36677 6.28119C7.42418 6.24901 7.48789 6.22965 7.5535 6.22446C7.61912 6.21927 7.68508 6.22836 7.74684 6.25111C7.8086 6.27386 7.8647 6.30973 7.91126 6.35625L10.2873 8.73321L14.0668 4.11316C14.1047 4.06685 14.1513 4.02846 14.2041 4.00019C14.2568 3.97192 14.3146 3.95432 14.3741 3.9484C14.4337 3.94248 14.4938 3.94835 14.5511 3.96569C14.6084 3.98302 14.6616 4.01147 14.7079 4.04941Z" fill="white" stroke="white"/>
</svg>
