<svg width="17" height="16" viewBox="0 0 17 16" fill="none" xmlns="http://www.w3.org/2000/svg">
<path d="M15.2103 10.9196H15.2104C15.3998 10.9197 15.5785 11.0032 15.7084 11.1469C15.8378 11.29 15.9092 11.4818 15.9103 11.6797L15.9103 11.6804C15.9103 12.0891 15.608 12.443 15.2119 12.443H13.5907C13.7463 12.7421 13.8312 13.0836 13.8312 13.4325C13.8312 14.5111 13.0402 15.4108 12.0397 15.4108C11.0392 15.4108 10.2482 14.5112 10.2482 13.4326M15.2103 10.9196L10.6302 12.443C10.4625 12.7383 10.3729 13.0813 10.3732 13.4325H10.2482C10.2482 13.4326 10.2482 13.4326 10.2482 13.4326M15.2103 10.9196H5.72953L6.10489 10.0694L14.0928 10.0533L15.2103 10.9196ZM10.2482 13.4326C10.2479 13.0845 10.3309 12.7432 10.4878 12.443H8.3102M10.2482 13.4326L8.3102 12.443M8.3102 12.443C8.46574 12.7421 8.55068 13.0836 8.55068 13.4325C8.55068 14.5111 7.7597 15.4108 6.75916 15.4108C5.75866 15.4108 4.9677 14.5112 4.96765 13.4326C4.96765 13.4326 4.96765 13.4326 4.96765 13.4325H5.09265C5.09237 13.0813 5.18199 12.7383 5.34964 12.443H8.3102ZM4.4072 12.443H5.2073L14.093 10.0533C14.4364 10.0532 14.7147 9.78232 14.7717 9.43174L14.7717 9.43152L15.8892 2.47546L15.8892 2.47541C15.9235 2.26139 15.8726 2.03889 15.7439 1.86756L15.7438 1.86736C15.6801 1.78302 15.6 1.71403 15.5082 1.66607C15.4164 1.61807 15.3155 1.59253 15.2127 1.59185L15.2124 1.59185L5.04991 1.5543L4.98159 1.19694C4.98158 1.19688 4.98157 1.19683 4.98155 1.19677C4.91679 0.853991 4.63497 0.589355 4.29675 0.589355H1.78724C1.59748 0.589355 1.41855 0.673303 1.28886 0.81753C1.15956 0.96132 1.08887 1.15375 1.08887 1.35198C1.08887 1.55021 1.15956 1.74264 1.28886 1.88643C1.41855 2.03066 1.59748 2.1146 1.78724 2.1146H3.72864L4.09264 4.0391L4.09272 4.0395L5.02818 9.07625L3.83722 11.2382C3.76358 11.3505 3.7199 11.482 3.70991 11.6184C3.6998 11.7562 3.72443 11.895 3.78171 12.0192C3.89702 12.2735 4.13491 12.443 4.4072 12.443ZM5.33624 3.06166L14.3913 3.09489L13.5152 8.54993L6.37863 8.56397L5.33624 3.06166ZM6.75916 13.8783C6.55773 13.8783 6.37089 13.6906 6.37089 13.4325C6.37089 13.1744 6.55773 12.9867 6.75916 12.9867C6.9606 12.9867 7.14744 13.1744 7.14744 13.4325C7.14744 13.5548 7.10364 13.6697 7.02916 13.7525C6.95506 13.8349 6.8576 13.8783 6.75916 13.8783ZM12.0397 13.8783C11.8383 13.8783 11.6514 13.6906 11.6514 13.4325C11.6514 13.1744 11.8383 12.9867 12.0397 12.9867C12.2411 12.9867 12.428 13.1744 12.428 13.4325C12.428 13.5548 12.3842 13.6697 12.3097 13.7525C12.2356 13.8349 12.1381 13.8783 12.0397 13.8783Z" fill="#DE744C" stroke="#DE744C" stroke-width="0.25"/>
</svg>
