<svg width="21" height="22" viewBox="0 0 21 22" fill="none" xmlns="http://www.w3.org/2000/svg">
<mask id="mask0_652_1312" style="mask-type:alpha" maskUnits="userSpaceOnUse" x="0" y="0" width="21" height="22">
<rect y="0.583496" width="20.833" height="20.833" fill="#D9D9D9"/>
</mask>
<g mask="url(#mask0_652_1312)">
<path d="M5.64264 10.132L10.4169 2.31958L15.1911 10.132H5.64264ZM15.1911 19.6804C14.106 19.6804 13.1838 19.3007 12.4242 18.5411C11.6647 17.7816 11.2849 16.8593 11.2849 15.7742C11.2849 14.6892 11.6647 13.7669 12.4242 13.0073C13.1838 12.2478 14.106 11.868 15.1911 11.868C16.2762 11.868 17.1984 12.2478 17.958 13.0073C18.7175 13.7669 19.0973 14.6892 19.0973 15.7742C19.0973 16.8593 18.7175 17.7816 17.958 18.5411C17.1984 19.3007 16.2762 19.6804 15.1911 19.6804ZM2.60449 19.2464V12.3021H9.54883V19.2464H2.60449ZM15.1911 17.9443C15.7987 17.9443 16.3123 17.7346 16.7319 17.315C17.1514 16.8955 17.3612 16.3819 17.3612 15.7742C17.3612 15.1666 17.1514 14.653 16.7319 14.2335C16.3123 13.8139 15.7987 13.6041 15.1911 13.6041C14.5835 13.6041 14.0699 13.8139 13.6503 14.2335C13.2308 14.653 13.021 15.1666 13.021 15.7742C13.021 16.3819 13.2308 16.8955 13.6503 17.315C14.0699 17.7346 14.5835 17.9443 15.1911 17.9443ZM4.34058 17.5103H7.81274V14.0381H4.34058V17.5103ZM8.72419 8.39587H12.1096L10.4169 5.66154L8.72419 8.39587Z" fill="white"/>
</g>
</svg>
